<?xml version="1.0" encoding="utf-8"?>
<!-- Generator: Adobe Illustrator 21.1.0, SVG Export Plug-In . SVG Version: 6.00 Build 0)  -->
<svg width="225" height="70" version="1.1" id="Capa_1" xmlns="http://www.w3.org/2000/svg" xmlns:xlink="http://www.w3.org/1999/xlink" x="0px" y="0px"
	 viewBox="0 0 226.3 62.5" style="enable-background:new 0 0 226.3 62.5;" xml:space="preserve">
<style type="text/css">
	.st0{fill:#EE4056;}
	.st1{fill:#343434;}
</style>
<g>
	<path class="st0" d="M120,22.4c1.3-1.4,2.1-3,2.4-4.9c0,0,0,0,0-0.1c0-0.1,0-0.2,0-0.3c0-0.1,0-0.1,0-0.2c0-0.1,0-0.2,0-0.2
		c0-0.1,0-0.3,0-0.4c0-2.5-0.8-4.6-2.4-6.2c-1.6-1.7-3.7-2.5-6.2-2.5c0,0,0,0,0,0c0,0,0,0,0,0c-2.5,0-4.6,0.8-6.2,2.5
		c-1.6,1.7-2.4,3.7-2.4,6.2c0,0.1,0,0.3,0,0.4c0,0.1,0,0.2,0,0.2c0,0.1,0,0.1,0,0.2c0,0.1,0,0.2,0,0.3c0,0,0,0,0,0.1
		c0.2,1.9,1,3.6,2.4,4.9c1.5,1.6,3.5,2.4,5.8,2.5c0,0,0.1,0,0.1,0c0.1,0,0.2,0,0.3,0c0,0,0,0,0,0c0,0,0,0,0,0c0.1,0,0.2,0,0.3,0
		c0,0,0.1,0,0.1,0C116.5,24.8,118.5,24,120,22.4z M115.7,20.1c-0.5,0.4-1.1,0.6-1.9,0.6c-0.8,0-1.4-0.2-1.9-0.6c0,0,0,0,0,0
		c-0.1-0.1-0.2-0.1-0.2-0.2c0,0,0,0-0.1-0.1c0,0-0.1-0.1-0.1-0.1c-0.1-0.1-0.2-0.3-0.3-0.4c-0.1-0.3-0.3-0.5-0.4-0.9l0,0
		c-0.2-0.7-0.3-1.4-0.3-2.2c0-1.2,0.2-2.3,0.7-3.1c0.6-1,1.4-1.5,2.6-1.5c1.1,0,2,0.5,2.6,1.5c0.5,0.8,0.7,1.9,0.7,3.1
		c0,0.8-0.1,1.5-0.3,2.2l0,0c-0.1,0.3-0.2,0.6-0.4,0.9c-0.1,0.2-0.2,0.3-0.3,0.4c0,0-0.1,0.1-0.1,0.1c0,0,0,0-0.1,0.1
		C115.8,20,115.7,20.1,115.7,20.1C115.7,20.1,115.7,20.1,115.7,20.1z M9.9,24.6H4.3v-23h8.8l3.9,15.3h0.1l4-15.3h8.7l0,0h0v22.9
		h-5.6V7.2l-4.8,17.4h-4.6L10,7.1H9.9V24.6z M35.8,19.4L31.5,7.9h5.8l3.1,10.8h0.1l3.1-10.8h5.6L42.6,26c-0.6,1.7-1.5,2.8-2.6,3.4
		c-0.9,0.4-2.3,0.7-4.4,0.7h-2.6v-4.4H35c1.4,0,2.2-0.6,2.2-1.9C37.2,23.5,36.7,22,35.8,19.4z M56.7,11.1h9.4v4.6h-9.4v8.8h-5.9V1.7
		h16.8v4.8H56.7V11.1z M80.1,22.9c0.2,0.9,0.3,1.5,0.3,1.6h5.5c-0.4-0.9-0.6-2.3-0.6-4.3v-4.5l0-3.1c-0.1-2-0.9-3.4-2.5-4.3
		c-1.2-0.6-3-1-5.2-1c-2.2,0-3.9,0.4-5.3,1.2c-1.6,0.9-2.5,2.4-2.6,4.4h5.1c0.3-1.4,1.2-2.1,2.7-2.1c0.7,0,1.2,0.1,1.7,0.4
		c0.6,0.3,0.9,0.8,0.9,1.3c0,0.5-0.1,0.8-0.4,1.1c-0.2,0.2-0.5,0.4-1.1,0.5c-0.2,0-1.3,0.2-3.1,0.5c-1.3,0.2-2.4,0.4-3.1,0.7
		C70.2,16.1,69,17.7,69,20c0,1.6,0.5,2.9,1.6,3.8c1,0.8,2.3,1.2,4,1.2C77,25,78.9,24.3,80.1,22.9z M76.7,21.6
		c-1.5,0-2.3-0.6-2.3-1.9c0-0.7,0.3-1.2,0.9-1.6c0.4-0.3,1.4-0.6,3-0.9l1.7-0.4l0,1.3c-0.1,1.2-0.4,2.1-0.9,2.6
		C78.6,21.3,77.8,21.6,76.7,21.6z M92.4,24.5L86.8,7.9h5.7l3,11h0.1l3.1-11h5.5l-5.6,16.6H92.4z M136.2,7.9h5.4v16.6h-5.3v-2.3h-0.1
		c-1.1,1.8-2.8,2.8-5.1,2.8c-2.3,0-3.9-0.6-4.9-1.9c-0.9-1.1-1.3-2.9-1.3-5.2v-10h5.4v9.6c0,2,0.9,3,2.7,3c0.7,0,1.4-0.3,1.9-0.8
		c0.7-0.6,1.1-1.6,1.1-2.9V7.9z M150.8,24.5h-5.4V7.9h5.3v2.9h0.1c0.8-2.2,2.5-3.2,5-3.2c0.5,0,0.9,0,1.3,0.1v5
		c-0.7-0.2-1.4-0.3-2.1-0.3c-1.3,0-2.3,0.4-3,1.2c-0.7,0.7-1.1,1.6-1.1,2.8V24.5z M164.2,5.8h-5.4V1.7h5.4V5.8z M164.2,24.5h-5.4
		V7.9h5.4V24.5z M174.6,7.9h3.4v3.5h-3.4V19c0,1.1,0.7,1.6,2,1.6l1.4-0.1v4c-0.3,0-0.7,0-1.5,0.1c-0.6,0-1.1,0.1-1.5,0.1
		c-2.3,0-3.8-0.4-4.6-1.2c-0.8-0.8-1.2-2.3-1.2-4.6v-7.4h-2.8V7.9h2.8v-5h5.4V7.9z M193.6,23.6c1.6-1,2.6-2.4,3.1-4.2h-5.1
		c-0.5,1.2-1.5,1.8-3.1,1.8c-1.1,0-2-0.3-2.7-1c-0.6-0.7-1-1.6-1-2.8H197c0.1-2.9-0.5-5.3-2-7.2c-1.6-2-3.8-2.9-6.7-2.9
		c-1.9,0-3.7,0.5-5.2,1.6c-1.5,1.1-3,2.7-3.6,5.5c-0.1,0.6-0.2,1.1-0.2,1.7c0,2.8,0.8,4.9,2.5,6.5c1.6,1.6,3.8,2.3,6.6,2.3
		C190.4,24.9,192.2,24.5,193.6,23.6z M188.3,11.1c0.9,0,1.7,0.3,2.3,1c0.6,0.6,0.9,1.4,1,2.4H185C185.3,12.2,186.9,11.1,188.3,11.1z
		"/>
	<path class="st1" d="M10.5,31.4L5.1,45.7h0l-3.2,8.5H8l1.4-4.1h8l1.4,4.1h6.2l-8.5-22.9H10.5z M10.9,45.7l2.6-8h0.1l2.5,8H10.9z
		 M36.3,37.2c-1.3,0-2.4,0.4-3.3,1.1c-0.9,0.7-1.3,1.5-1.3,1.5v-2.1h-5.2v22.2h5.4v-7.4h0.1c1.1,1.5,2.7,2.3,4.7,2.3
		c2.2,0,4-0.9,5.3-2.6c1.2-1.6,1.8-3.5,1.8-5.9c0-2.6-0.6-4.7-1.8-6.3C40.6,38.1,38.7,37.2,36.3,37.2z M37.5,49.1
		c-0.6,1-1.5,1.6-2.6,1.6c-2.1,0-3.2-1.5-3.3-4.4c0-2.5,0.7-3.5,1.3-4.1c0.6-0.6,1.3-0.8,2-0.8c1.1,0,2,0.5,2.5,1.4
		c0.5,0.8,0.7,1.8,0.7,3C38.3,47.1,38,48.2,37.5,49.1z M56.3,37.2c-1.3,0-2.4,0.4-3.3,1.1c-0.9,0.7-1.3,1.5-1.3,1.5v-2.1h-5.2v22.2
		h5.4v-7.4h0.1c1.1,1.5,2.7,2.3,4.7,2.3c2.2,0,4-0.9,5.3-2.6c1.2-1.6,1.8-3.5,1.8-5.9c0-2.6-0.6-4.7-1.8-6.3
		C60.6,38.1,58.7,37.2,56.3,37.2z M57.5,49.1c-0.6,1-1.5,1.6-2.6,1.6c-2.1,0-3.2-1.5-3.3-4.4c0-2.5,0.9-3.6,1.3-4.1
		c0.4-0.5,1.3-0.8,2-0.8c1.1,0,2,0.5,2.5,1.4c0.5,0.8,0.7,1.8,0.7,3C58.3,47.1,58,48.2,57.5,49.1z M66.6,31.4h5.4v22.8h-5.4V31.4z
		 M75.9,37.6h5.4v16.6h-5.4V37.6z M75.9,31.4h5.4v4.2h-5.4V31.4z M100.4,45.5l0-3.1c-0.1-2-0.9-3.4-2.5-4.3c-1.2-0.6-3-1-5.2-1
		c-2.2,0-3.9,0.4-5.3,1.2c-1.6,0.9-2.5,2.4-2.6,4.4h5.1c0.3-1.4,1.2-2.1,2.7-2.1c0.7,0,1.2,0.1,1.7,0.4c0.6,0.3,0.9,0.8,0.9,1.3
		c0,0.5-0.1,0.8-0.4,1.1c-0.2,0.2-0.5,0.4-1.1,0.5c-0.2,0-1.3,0.2-3.1,0.5c-1.3,0.2-2.4,0.4-3.1,0.7c-2.3,0.8-3.4,2.3-3.4,4.6
		c0,1.6,0.5,2.9,1.6,3.8c1,0.8,2.3,1.2,4,1.2c2.4,0,4.2-0.7,5.5-2c0.2,0.9,0.3,1.5,0.3,1.6h5.5c-0.4-0.9-0.6-2.3-0.6-4.3V45.5z
		 M95.1,47.9c-0.1,1.2-0.4,2.1-0.9,2.6c-0.5,0.6-1.3,0.8-2.4,0.8c-1.5,0-2.3-0.6-2.3-1.9c0-0.7,0.3-1.2,0.9-1.6
		c0.4-0.3,1.4-0.6,3-0.9l1.7-0.4L95.1,47.9z M120.4,43.6v10.7H115v-9.7c0-1.9-0.9-2.9-2.7-2.9c-1,0-1.7,0.4-2.2,1.1
		c-0.5,0.7-0.7,1.5-0.7,2.5v9.1h-5.4V37.6h5.3v2.3h0.1c1.1-1.8,2.8-2.8,5.2-2.8C118.4,37.2,120.4,39.3,120.4,43.6z M134.8,47.7h5.3
		c-0.3,2.2-1.2,3.9-2.7,5.2c-1.5,1.2-3.4,1.8-5.7,1.8c-2.5,0-4.6-0.8-6.2-2.3c-1.7-1.6-2.5-3.6-2.5-6.2c0-2.7,0.8-4.8,2.3-6.5
		c1.6-1.7,3.7-2.6,6.4-2.6c2.2,0,4,0.5,5.5,1.6c1.6,1.2,2.5,2.8,2.7,4.9h-5.3c0-0.7-0.3-1.3-0.8-1.7c-0.5-0.4-1.2-0.7-1.9-0.7
		c-2.3,0-3.5,1.6-3.5,4.9c0,1.2,0.3,2.2,0.8,3c0.6,0.9,1.4,1.4,2.5,1.4C133.5,50.6,134.5,49.6,134.8,47.7z M150.8,37.1
		c-1.9,0-3.7,0.5-5.2,1.6c-1.5,1.1-3,2.7-3.6,5.5c-0.1,0.6-0.2,1.1-0.2,1.7c0,2.8,0.8,4.9,2.5,6.5c1.6,1.6,3.8,2.3,6.6,2.3
		c2,0,3.7-0.4,5.1-1.3c1.6-1,2.6-2.4,3.1-4.2h-5.1c-0.5,1.2-1.5,1.8-3.1,1.8c-1.1,0-2-0.3-2.7-1c-0.6-0.7-1-1.6-1-2.8h12.2
		c0.1-2.9-0.5-5.3-2-7.2C155.9,38.1,153.7,37.1,150.8,37.1z M147.5,44.2c0.2-2.3,1.9-3.4,3.3-3.4c0.9,0,1.7,0.3,2.3,1
		c0.6,0.6,0.9,1.4,1,2.4H147.5z M176.3,46.3c0.6,0.8,0.9,1.6,0.9,2.5c0,2-0.9,3.6-2.6,4.6c-1.4,0.9-3.2,1.3-5.4,1.3
		c-5.3,0-8-2-8.1-5.9h5.2c0,0.8,0.3,1.4,0.9,1.9c0.5,0.4,1.2,0.6,2,0.6c0.6,0,1.2-0.1,1.7-0.4c0.6-0.3,0.9-0.8,0.9-1.3
		c0-0.6-0.3-1-1-1.3c-0.1,0-0.6-0.2-1.7-0.5c-3.2-0.8-4.9-1.3-5.2-1.4c-1.7-0.8-2.6-2.1-2.6-4.1c0-1.8,0.9-3.1,2.6-4
		c1.4-0.7,3-1.1,5-1.1c5,0,7.5,1.8,7.6,5.4h-5c0-0.7-0.2-1.2-0.7-1.4c-0.4-0.3-1-0.4-1.7-0.4c-1.6,0-2.3,0.4-2.3,1.2
		c0,0.7,0.7,1.2,2.1,1.6c-0.1,0,1.3,0.3,4,0.8C174.4,44.6,175.6,45.3,176.3,46.3z M180,51.8h2.2v2.4H180V51.8z M197.8,43.4h0.9
		l-3.5,10.8h-1l-3-9.8h0l-3,9.8h-1l-3.4-10.8h0.9l3.1,9.9h0l3-9.9h1.1l3,9.9h0L197.8,43.4z M223.8,43.4l-3.5,10.8h-1l-3-9.8h0
		l-3,9.8h-1l-3.4-10.8h0.9l3.1,9.9h0l3-9.9h1.1l3,9.9h0l3-9.9H223.8z M208.7,49.8c0.3-2.7-0.8-5.9-3.8-6.5c-3.3-0.7-5.9,1.7-6.1,4.9
		c-0.2,2.7,1,5.7,3.9,6.3C205.8,55,208.3,52.8,208.7,49.8z M205.8,53.2L205.8,53.2c-1.2,0.8-2.9,0.8-4.1,0l0,0
		c-3.5-2.2-2.5-9.4,2.1-9.4C208.3,43.9,209.3,51,205.8,53.2z"/>
</g>
</svg>
